<?xml version="1.0" standalone="no"?>
<!DOCTYPE svg PUBLIC "-//W3C//DTD SVG 20010904//EN"
 "http://www.w3.org/TR/2001/REC-SVG-20010904/DTD/svg10.dtd">
<svg version="1.0" xmlns="http://www.w3.org/2000/svg"
 width="512.000000pt" height="512.000000pt" viewBox="0 0 512.000000 512.000000"
 preserveAspectRatio="xMidYMid meet">

<g transform="translate(0.000000,512.000000) scale(0.100000,-0.100000)"
fill="#000000" stroke="none">
<path d="M2040 4137 c-123 -34 -169 -90 -299 -360 l-104 -215 -341 -4 c-327
-4 -343 -5 -398 -27 -73 -28 -141 -94 -176 -169 l-27 -57 0 -1045 0 -1045 26
-55 c37 -80 81 -125 157 -162 l67 -33 1620 0 1620 0 67 33 c76 37 120 82 157
162 l26 55 0 1045 0 1045 -27 57 c-35 75 -103 141 -176 169 -55 22 -71 23
-398 27 l-341 4 -104 215 c-116 242 -154 295 -247 340 l-57 28 -500 2 c-374 2
-511 -1 -545 -10z m1023 -230 c19 -12 53 -68 107 -177 44 -88 80 -162 80 -165
0 -3 -308 -5 -685 -5 -377 0 -685 2 -685 5 0 14 160 323 173 334 9 7 28 16 44
21 15 5 233 8 483 7 418 -2 458 -3 483 -20z m1106 -591 c45 -24 51 -52 51
-230 l0 -164 -622 -276 -623 -276 -410 0 -410 0 -622 276 -623 277 0 166 c1
177 6 202 51 227 37 21 3168 20 3208 0z m-3056 -726 l187 -83 0 -663 0 -664
-137 0 c-156 0 -203 10 -233 47 -20 25 -20 36 -20 740 0 393 3 712 8 710 4 -2
91 -41 195 -87z m3089 -1360 c-29 -39 -74 -49 -229 -49 l-143 -1 0 664 0 664
193 85 192 85 3 -711 c2 -679 1 -713 -16 -737z m-2357 1036 c248 -111 262
-116 327 -116 l68 0 0 -147 c0 -166 11 -207 69 -256 47 -39 90 -47 256 -47
166 0 209 8 256 47 58 49 69 90 69 256 l0 147 68 0 c66 0 79 5 358 128 l289
129 3 -601 c1 -331 0 -607 -3 -614 -3 -10 -217 -12 -1042 -10 l-1038 3 -3 612
-2 612 32 -14 c18 -7 150 -66 293 -129z m825 -226 l0 -110 -105 0 -105 0 0
110 0 110 105 0 105 0 0 -110z"/>
</g>
</svg>
