<?xml version="1.0" encoding="iso-8859-1"?>
<!-- Generator: Adobe Illustrator 19.0.0, SVG Export Plug-In . SVG Version: 6.00 Build 0)  -->
<svg version="1.1" id="Capa_1" xmlns="http://www.w3.org/2000/svg" xmlns:xlink="http://www.w3.org/1999/xlink" x="0px" y="0px"
	 viewBox="0 0 512 512" style="enable-background:new 0 0 512 512;" xml:space="preserve">
<g>
	<g>
		<path d="M467.693,123.077h-84.41L356.145,68.8c-7.555-15.107-22.74-24.492-39.631-24.492H195.487
			c-16.891,0-32.076,9.385-39.631,24.492l-27.137,54.277H44.308C19.877,123.077,0,142.953,0,167.385v256
			c0,24.431,19.876,44.308,44.308,44.308h423.385c24.431,0,44.308-19.876,44.308-44.308v-256
			C512,142.953,492.124,123.077,467.693,123.077z M182.276,82.011c2.519-5.036,7.581-8.164,13.211-8.164h121.027
			c5.63,0,10.692,3.128,13.211,8.164l20.533,41.066H161.744L182.276,82.011z M83.693,438.154H44.308
			c-8.144,0-14.769-6.625-14.769-14.769V239.093l54.154,23.418V438.154z M398.77,438.154H113.231V275.285l77.831,33.656
			c1.85,0.8,3.846,1.213,5.862,1.213h14.769v34.461c0,13.573,11.042,24.615,24.615,24.615h39.385
			c13.573,0,24.615-11.042,24.615-24.615v-34.461h14.769c2.016,0,4.011-0.413,5.862-1.213l77.829-33.656V438.154z M241.231,339.692
			v-29.538h29.538v29.538H241.231z M482.462,423.385c0,8.144-6.625,14.769-14.769,14.769h-39.385V262.511l54.154-23.418V423.385z
			 M482.462,206.911c-0.039,0.017,0,0-0.039,0.017l-170.401,73.688h-112.04c-0.039-0.017-170.401-73.688-170.441-73.704v-39.526
			c-0.001-8.144,6.625-14.769,14.768-14.769h329.76c0.032,0,0.065,0.003,0.097,0.003c0.02,0,0.039-0.003,0.059-0.003h93.469
			c8.144,0,14.769,6.625,14.769,14.769V206.911z"/>
	</g>
</g>
<g>
</g>
<g>
</g>
<g>
</g>
<g>
</g>
<g>
</g>
<g>
</g>
<g>
</g>
<g>
</g>
<g>
</g>
<g>
</g>
<g>
</g>
<g>
</g>
<g>
</g>
<g>
</g>
<g>
</g>
</svg>
