<?xml version="1.0" standalone="no"?>
<!DOCTYPE svg PUBLIC "-//W3C//DTD SVG 20010904//EN"
 "http://www.w3.org/TR/2001/REC-SVG-20010904/DTD/svg10.dtd">
<svg version="1.0" xmlns="http://www.w3.org/2000/svg"
 width="512.000000pt" height="512.000000pt" viewBox="0 0 512.000000 512.000000"
 preserveAspectRatio="xMidYMid meet">

<g transform="translate(0.000000,512.000000) scale(0.100000,-0.100000)"
fill="#000000" stroke="none">
<path d="M1876 4669 c-28 -4 -82 -24 -121 -43 -119 -59 -143 -93 -315 -435
l-150 -301 -448 0 c-477 0 -509 -3 -604 -51 -58 -30 -150 -119 -181 -177 -59
-109 -57 -44 -57 -1497 0 -1454 -2 -1393 57 -1495 67 -114 191 -199 318 -220
62 -10 2965 -15 2965 -5 0 3 -14 34 -32 68 -17 34 -44 98 -59 142 l-27 80
-1046 3 -1046 2 0 810 c0 514 4 810 10 810 5 0 182 -75 392 -167 l383 -167
103 -4 102 -4 0 -201 c0 -226 6 -252 71 -316 67 -67 85 -71 369 -71 284 0 302
4 369 71 65 64 71 90 71 316 l0 201 103 4 102 4 384 167 c211 92 387 167 392
167 5 0 9 -105 9 -232 l0 -233 142 0 143 0 5 300 5 300 259 112 c143 62 263
113 268 113 4 0 9 -247 10 -549 l3 -548 38 -42 c205 -227 292 -584 211 -866
-4 -14 -3 -17 4 -10 6 6 18 37 26 70 14 52 16 220 16 1390 0 1453 2 1388 -57
1497 -31 58 -123 147 -181 177 -95 48 -127 51 -604 51 l-448 0 -150 301 c-171
342 -197 376 -314 434 -39 20 -98 40 -131 45 -73 12 -1288 11 -1359 -1z m1365
-311 c28 -19 55 -64 147 -245 l112 -223 -940 0 -940 0 112 223 c92 181 119
226 147 245 l34 22 647 0 647 0 34 -22z m1514 -788 c62 -38 66 -60 63 -304
l-3 -220 -850 -367 -850 -368 -555 0 -555 0 -850 368 -850 368 -3 223 c-3 246
0 259 64 301 28 18 80 19 2193 19 2138 0 2164 0 2196 -20z m-4199 -954 c132
-57 250 -109 262 -115 l22 -12 0 -874 0 -875 -215 0 c-233 0 -246 3 -295 55
l-25 27 -3 949 c-1 522 1 949 6 949 5 0 116 -47 248 -104z m2154 -746 l0 -150
-150 0 -150 0 0 150 0 150 150 0 150 0 0 -150z"/>
</g>
</svg>
