<svg id="Capa_1" enable-background="new 0 0 512.01 512.01" height="512" viewBox="0 0 512.01 512.01" width="512" xmlns="http://www.w3.org/2000/svg"><g><path d="m377.005 0h105v82.881l-158.683 59.119z" fill="#bfebff"/><path d="m256.005 0-60 152h181v-152z" fill="#cb2e81"/><path d="m135.005 0h-105v82.881l158.683 59.119z" fill="#dff5ff"/><path d="m135.005 0h121v152h-121z" fill="#ff3187"/><path d="m256.005 512.005-82.5-165 82.5-165c91.127 0 165 73.873 165 165s-73.873 165-165 165z" fill="#ff9259"/><path d="m91.005 347.005c0-91.127 73.873-165 165-165v330c-91.127 0-165-73.873-165-165z" fill="#ffb24a"/><path d="m377.005 122h-121l-40 30 40 30h121c16.569 0 30-13.431 30-30 0-16.568-13.431-30-30-30z" fill="#ffb24a"/><path d="m135.005 122c-16.569 0-30 13.431-30 30s13.431 30 30 30h121v-60z" fill="#ffd23b"/><path d="m326.629 324.053 26.364-110.551-96.988 59.239-22 51.312 22 187.957 43.648-104.934 113.285-9.082z" fill="#ffb24a"/><path d="m159.017 213.502 26.364 110.551-86.309 73.941 113.285 9.082 43.648 104.934v-239.269z" fill="#ffd23b"/></g></svg>