<?xml version="1.0" standalone="no"?>
<!DOCTYPE svg PUBLIC "-//W3C//DTD SVG 20010904//EN"
 "http://www.w3.org/TR/2001/REC-SVG-20010904/DTD/svg10.dtd">
<svg version="1.0" xmlns="http://www.w3.org/2000/svg"
 width="640.000000pt" height="640.000000pt" viewBox="0 0 640.000000 640.000000"
 preserveAspectRatio="xMidYMid meet">

<g transform="translate(0.000000,640.000000) scale(0.100000,-0.100000)"
fill="#000000" stroke="none">
<path d="M2585 4905 c-100 -40 -138 -92 -277 -372 l-120 -243 -161 -1 c-89 0
-266 -4 -392 -8 -225 -6 -232 -7 -275 -33 -62 -36 -135 -112 -162 -167 l-23
-46 -8 -840 c-4 -462 -4 -986 1 -1165 8 -308 9 -327 31 -368 31 -61 87 -119
155 -164 l59 -38 1786 0 1786 0 50 29 c64 36 140 118 168 179 19 43 22 72 29
322 4 151 5 586 1 967 -5 632 -7 691 -22 684 -24 -13 -164 -40 -187 -37 -10 2
-21 0 -24 -4 -3 -4 -309 -143 -681 -309 l-676 -301 -443 0 -442 0 -232 104
c-127 57 -400 179 -606 271 -206 92 -408 182 -447 201 l-73 33 1 158 c1 193
11 239 58 267 33 19 58 20 1458 20 1258 1 1423 3 1423 16 0 8 -7 38 -15 65 -9
28 -17 75 -19 105 l-3 55 -46 3 -46 3 -121 245 c-107 219 -127 252 -178 304
-35 35 -74 63 -98 71 -29 10 -176 14 -604 16 l-565 3 -60 -25z m1175 -252 c17
-21 66 -110 109 -198 l79 -160 -374 -3 c-206 -1 -542 -1 -748 0 l-374 3 81
163 c45 90 95 179 110 198 l28 34 529 0 529 0 31 -37z m-2139 -1420 l199 -86
0 -724 0 -723 -178 0 -179 0 -31 39 -32 40 0 718 c0 653 4 823 18 823 2 0 94
-39 203 -87z m3373 35 c3 -29 6 -376 6 -771 l0 -718 -32 -40 -31 -39 -179 0
-178 0 0 723 0 722 198 87 c108 48 200 88 203 88 3 0 9 -24 13 -52z m-2639
-363 c318 -140 362 -155 437 -155 l58 0 0 -162 c0 -177 9 -213 63 -270 40 -43
88 -50 311 -46 228 4 237 6 288 77 l33 46 3 178 4 177 57 0 c75 0 139 23 448
159 139 61 257 111 261 111 14 0 22 -330 22 -847 l0 -473 -1140 0 -1140 0 0
478 c0 538 8 842 23 842 5 0 128 -52 272 -115z m955 -280 l0 -125 -110 0 -110
0 0 125 0 125 110 0 110 0 0 -125z"/>
</g>
</svg>
