<?xml version="1.0" standalone="no"?>
<!DOCTYPE svg PUBLIC "-//W3C//DTD SVG 20010904//EN"
 "http://www.w3.org/TR/2001/REC-SVG-20010904/DTD/svg10.dtd">
<svg version="1.0" xmlns="http://www.w3.org/2000/svg"
 width="512.000000pt" height="512.000000pt" viewBox="0 0 512.000000 512.000000"
 preserveAspectRatio="xMidYMid meet">

<g transform="translate(0.000000,512.000000) scale(0.100000,-0.100000)"
fill="#000000" stroke="none">
<path d="M2115 3940 c-119 -31 -150 -66 -266 -307 l-98 -202 -308 -3 c-298 -3
-309 -4 -350 -26 -58 -30 -111 -86 -137 -141 -21 -46 -21 -53 -24 -945 -2
-780 0 -906 13 -952 19 -65 87 -143 153 -176 l47 -23 1415 0 1415 0 47 23 c66
33 134 111 153 176 13 46 15 172 13 952 -3 892 -3 899 -24 945 -26 55 -79 111
-137 141 -41 22 -52 23 -350 26 l-308 3 -98 202 c-79 164 -105 209 -140 240
-82 74 -66 72 -551 74 -239 1 -448 -2 -465 -7z m889 -212 c14 -13 55 -85 90
-160 l65 -138 -599 0 -599 0 65 138 c36 75 76 147 90 160 l25 22 419 0 419 0
25 -22z m953 -507 c37 -25 43 -56 43 -204 l0 -142 -198 -87 c-108 -48 -353
-157 -544 -243 l-348 -155 -350 0 -350 0 -187 84 c-405 181 -752 336 -825 369
l-78 36 0 141 c0 168 8 189 75 212 11 3 632 5 1380 5 1168 -2 1363 -4 1382
-16z m-2650 -639 l153 -67 0 -577 0 -578 -144 0 -144 0 -26 31 -26 31 0 620
c0 586 1 620 18 614 9 -4 86 -37 169 -74z m2693 -541 l0 -619 -26 -31 -26 -31
-144 0 -144 0 0 578 1 577 162 72 c89 40 165 72 170 73 4 0 7 -279 7 -619z
m-2085 269 c224 -100 253 -110 306 -110 l59 0 0 -139 c0 -127 2 -141 23 -171
48 -72 58 -75 257 -75 199 0 209 3 258 75 20 30 22 44 22 171 l0 139 59 0 c54
0 82 10 306 110 136 61 251 110 256 110 5 0 9 -230 9 -530 l0 -530 -910 0
-910 0 0 530 c0 320 4 530 9 530 5 0 121 -49 256 -110z m735 -210 l0 -100 -90
0 -90 0 0 100 0 100 90 0 90 0 0 -100z"/>
</g>
</svg>
